<svg id="Layer_5" enable-background="new 0 0 64 64" height="512" viewBox="0 0 64 64" width="512" xmlns="http://www.w3.org/2000/svg" fill="white"><path d="m28.738 47h2.901l6.923-15h-4.236l2-7h-7.09l-3.546 13h5.062zm-.428-11 2.454-9h2.91l-2 7h3.764l-3.38 7.322 1.19-5.322z"/><path d="m63 13v-2c0-1.103-.897-2-2-2h-2v-1c0-1.302-.839-2.402-2-2.816v-1.184c0-1.654-1.346-3-3-3h-4c-1.654 0-3 1.346-3 3v1.184c-1.161.414-2 1.514-2 2.816v1h-26v-1c0-1.302-.839-2.402-2-2.816v-1.184c0-1.654-1.346-3-3-3h-4c-1.654 0-3 1.346-3 3v1.184c-1.161.414-2 1.514-2 2.816v1h-2c-1.103 0-2 .897-2 2v2c0 1.103.897 2 2 2v42c-1.103 0-2 .897-2 2v2c0 1.103.897 2 2 2h58c1.103 0 2-.897 2-2v-2c0-1.103-.897-2-2-2v-42c1.103 0 2-.897 2-2zm-13-10h4c.552 0 1 .448 1 1v1h-6v-1c0-.552.448-1 1-1zm-3 5c0-.552.448-1 1-1h8c.552 0 1 .448 1 1v1h-10zm-37-5h4c.552 0 1 .448 1 1v1h-6v-1c0-.552.448-1 1-1zm-3 5c0-.552.448-1 1-1h8c.552 0 1 .448 1 1v1h-10zm-4 3h58l.002 2h-58.002zm58.002 50h-58.002v-2h58zm-2.002-4h-54v-42h54z"/><path d="m47 35h10v2h-10z"/><path d="m11 41h2v-4h4v-2h-4v-4h-2v4h-4v2h4z"/><path d="m22 51h20c1.654 0 3-1.346 3-3v-24c0-1.654-1.346-3-3-3h-20c-1.654 0-3 1.346-3 3v24c0 1.654 1.346 3 3 3zm-1-27c0-.552.448-1 1-1h20c.552 0 1 .448 1 1v24c0 .552-.448 1-1 1h-20c-.552 0-1-.448-1-1z"/><path d="m7 53h2v2h-2z"/><path d="m11 53h2v2h-2z"/><path d="m15 53h2v2h-2z"/><path d="m55 17h2v2h-2z"/><path d="m51 17h2v2h-2z"/><path d="m47 17h2v2h-2z"/></svg>