<svg id="Layer_5" enable-background="new 0 0 64 64" height="512" viewBox="0 0 64 64" width="512" xmlns="http://www.w3.org/2000/svg" fill="white"><path d="m53 21v2h-1.586c-1.316-1.29-3.053-2-4.899-2h-.515v-5.08c2.449-1.42 4-4.07 4-6.92 0-4.411-3.589-8-8-8s-8 3.589-8 8c0 2.85 1.551 5.5 4 6.92v5.08h-2c-1.103 0-2 .897-2 2 0 .749.22 1.442.58 2.042-1.455.207-2.58 1.448-2.58 2.958 0 .771.301 1.468.78 2-.48.532-.78 1.229-.78 2s.301 1.468.78 2c-.48.532-.78 1.229-.78 2s.301 1.468.78 2c-.48.532-.78 1.229-.78 2 0 1.654 1.346 3 3 3h3v5.08c-2.449 1.42-4 4.07-4 6.92 0 4.411 3.589 8 8 8s8-3.589 8-8c0-2.85-1.551-5.5-4-6.92v-5.104c.941-.057 1.872-.293 2.714-.714l2.522-1.262h1.764v2h10v-22zm-13.57-6.585c-2.084-.992-3.43-3.118-3.43-5.415 0-3.309 2.691-6 6-6s6 2.691 6 6c0 2.297-1.346 4.423-3.43 5.415l-.57.271v6.314h-4v-6.314zm-4.43 12.585h3 1c.551 0 1 .449 1 1s-.449 1-1 1h-4c-.551 0-1-.449-1-1s.449-1 1-1zm-1 9c0-.551.449-1 1-1h4c.551 0 1 .449 1 1s-.449 1-1 1h-4c-.551 0-1-.449-1-1zm0-4c0-.551.449-1 1-1h4c.551 0 1 .449 1 1s-.449 1-1 1h-4c-.551 0-1-.449-1-1zm0 8c0-.551.449-1 1-1h4c.551 0 1 .449 1 1s-.449 1-1 1h-4c-.551 0-1-.449-1-1zm14 15c0 3.309-2.691 6-6 6s-6-2.691-6-6c0-2.297 1.346-4.423 3.43-5.415l.57-.271v-6.498c1.161-.414 2-1.514 2-2.816 0-.771-.301-1.468-.78-2 .48-.532.78-1.229.78-2s-.301-1.468-.78-2c.48-.532.78-1.229.78-2s-.301-1.468-.78-2c.48-.532.78-1.229.78-2 0-.352-.072-.686-.184-1h2.184v22.314l.57.271c2.084.992 3.43 3.118 3.43 5.415zm2.764-16-2.943 1.472c-.567.283-1.189.45-1.82.503v-12.91c1.049.605 2.24.935 3.484.935h1.515v-2h-1.515c-1.335 0-2.591-.52-3.536-1.464l-.535-.536h-6.414-1c-1.103 0-2-.897-2-2h10.515c1.335 0 2.591.52 3.536 1.464l.535.536h2.414v14zm10.236 2h-6v-18h6z"/><path d="m42 51c-2.206 0-4 1.794-4 4s1.794 4 4 4 4-1.794 4-4-1.794-4-4-4zm0 6c-1.103 0-2-.897-2-2s.897-2 2-2 2 .897 2 2-.897 2-2 2z"/><path d="m46 9c0-2.206-1.794-4-4-4s-4 1.794-4 4 1.794 4 4 4 4-1.794 4-4zm-6 0c0-1.103.897-2 2-2s2 .897 2 2-.897 2-2 2-2-.897-2-2z"/><path d="m24 51c-2.206 0-4 1.794-4 4s1.794 4 4 4 4-1.794 4-4-1.794-4-4-4zm0 6c-1.103 0-2-.897-2-2s.897-2 2-2 2 .897 2 2-.897 2-2 2z"/><path d="m28 48.08v-26.16c2.449-1.42 4-4.07 4-6.92 0-3.005-1.666-5.521-4.57-6.903l-1.43-.68v7.048l-2 1.333-2-1.333v-7.048l-1.43.68c-2.904 1.382-4.57 3.898-4.57 6.903 0 2.85 1.551 5.5 4 6.92v26.16c-2.449 1.42-4 4.07-4 6.92 0 4.411 3.589 8 8 8s8-3.589 8-8c0-2.85-1.551-5.5-4-6.92zm-4 12.92c-3.309 0-6-2.691-6-6 0-2.297 1.346-4.423 3.43-5.415l.57-.271v-28.628l-.57-.271c-2.084-.992-3.43-3.118-3.43-5.415 0-2.029.973-3.359 2-4.198v4.733l4 2.667 4-2.667v-4.733c1.027.839 2 2.169 2 4.198 0 2.297-1.346 4.423-3.43 5.415l-.57.271v28.628l.57.271c2.084.992 3.43 3.118 3.43 5.415 0 3.309-2.691 6-6 6z"/><path d="m15 24c0-3.86-3.14-7-7-7s-7 3.14-7 7c0 2.288 1.136 4.436 3 5.738v20.523c-1.864 1.303-3 3.451-3 5.739 0 3.86 3.14 7 7 7s7-3.14 7-7c0-2.288-1.136-4.436-3-5.738v-20.524c1.864-1.302 3-3.45 3-5.738zm-4.501 27.674c1.543.894 2.501 2.552 2.501 4.326 0 2.757-2.243 5-5 5s-5-2.243-5-5c0-1.774.958-3.432 2.501-4.326l.499-.289v-22.77l-.499-.289c-1.543-.894-2.501-2.552-2.501-4.326 0-2.757 2.243-5 5-5s5 2.243 5 5c0 1.774-.958 3.432-2.501 4.326l-.499.289v22.771z"/><path d="m11 24c0-1.654-1.346-3-3-3s-3 1.346-3 3 1.346 3 3 3 3-1.346 3-3zm-3 1c-.551 0-1-.449-1-1s.449-1 1-1 1 .449 1 1-.449 1-1 1z"/><path d="m5 56c0 1.654 1.346 3 3 3s3-1.346 3-3-1.346-3-3-3-3 1.346-3 3zm4 0c0 .551-.449 1-1 1s-1-.449-1-1 .449-1 1-1 1 .449 1 1z"/></svg>