<svg height="496pt" viewBox="0 0 496 496" width="496pt" xmlns="http://www.w3.org/2000/svg"><path d="m446.207031 312.464844.082031-.058594c-.25-.34375-.546874-.644531-.792968-.980469-.238282-.328125-.449219-.691406-.695313-1.019531l-168-224c-.320312-.421875-.664062-.8125-.984375-1.230469-.160156-.207031-.296875-.433593-.464844-.648437l-.03125.023437c-25.625-32.925781-65.535156-52.550781-107.320312-52.550781-74.992188 0-136 61.007812-136 136 0 41.777344 19.609375 81.671875 52.519531 107.296875l-.03125.039063c.273438.207031.558594.382812.832031.601562.367188.277344.710938.582031 1.078126.863281l223.992187 168c.449219.335938.921875.613281 1.378906.941407.269531.203124.503907.433593.773438.625l.042969-.0625c16.125 11.390624 35.671874 17.695312 55.414062 17.695312 52.9375 0 96-43.0625 96-96 0-19.800781-6.335938-39.398438-17.792969-55.535156zm-398.207031-144.464844c0-66.167969 53.832031-120 120-120 37.238281 0 72.800781 17.671875 95.375 47.273438 16.089844 21.039062 24.625 46.152343 24.625 72.726562 0 66.167969-53.832031 120-120 120-26.535156 0-51.609375-8.503906-72.640625-24.542969-29.648437-22.578125-47.359375-58.167969-47.359375-95.457031zm120 136c74.992188 0 136-61.007812 136-136 0-7.054688-.585938-14-1.632812-20.839844l97.890624 130.511719c-10.242187-3.65625-21.121093-5.671875-32.257812-5.671875-52.9375 0-96 43.0625-96 96 0 11.144531 2.023438 22.023438 5.6875 32.273438l-130.527344-97.90625c6.839844 1.046874 13.785156 1.632812 20.839844 1.632812zm200 144c-16.726562 0-33.296875-5.414062-46.855469-15.207031-20.753906-15.050781-33.144531-39.183594-33.144531-64.792969 0-44.113281 35.886719-80 80-80 25.535156 0 49.585938 12.296875 64.609375 32.886719 9.910156 13.601562 15.390625 30.273437 15.390625 47.113281 0 44.113281-35.886719 80-80 80zm0 0"/><path d="m470.398438 291.199219-168-224c-31.558594-42.078125-81.796876-67.199219-134.398438-67.199219-92.640625 0-168 75.359375-168 168 0 52.601562 25.121094 102.832031 67.199219 134.398438l224 168c22.015625 16.503906 49.289062 25.601562 76.800781 25.601562 70.574219 0 128-57.425781 128-128 0-27.503906-9.089844-54.792969-25.601562-76.800781zm-102.398438 188.800781c-24.070312 0-47.9375-7.953125-67.199219-22.398438l-224-168c-38.074219-28.554687-60.800781-74.015624-60.800781-121.601562 0-83.816406 68.183594-152 152-152 47.59375 0 93.046875 22.726562 121.601562 60.800781l168 224c14.4375 19.261719 22.398438 43.136719 22.398438 67.199219 0 61.761719-50.238281 112-112 112zm0 0"/><path d="m368 336c-17.648438 0-32 14.351562-32 32s14.351562 32 32 32 32-14.351562 32-32-14.351562-32-32-32zm0 48c-8.824219 0-16-7.175781-16-16s7.175781-16 16-16 16 7.175781 16 16-7.175781 16-16 16zm0 0"/><path d="m368 304c-35.289062 0-64 28.710938-64 64s28.710938 64 64 64 64-28.710938 64-64-28.710938-64-64-64zm0 112c-26.472656 0-48-21.527344-48-48s21.527344-48 48-48 48 21.527344 48 48-21.527344 48-48 48zm0 0"/><path d="m168 208c22.054688 0 40-17.945312 40-40s-17.945312-40-40-40-40 17.945312-40 40 17.945312 40 40 40zm0-64c13.230469 0 24 10.769531 24 24s-10.769531 24-24 24-24-10.769531-24-24 10.769531-24 24-24zm0 0"/><path d="m168 240c39.695312 0 72-32.304688 72-72s-32.304688-72-72-72-72 32.304688-72 72 32.304688 72 72 72zm0-128c30.878906 0 56 25.121094 56 56s-25.121094 56-56 56-56-25.121094-56-56 25.121094-56 56-56zm0 0"/><path d="m176 72c0 4.417969-3.582031 8-8 8s-8-3.582031-8-8 3.582031-8 8-8 8 3.582031 8 8zm0 0"/><path d="m80.863281 126.929688c3.824219 2.207031 8.722657.894531 10.929688-2.929688s.894531-8.71875-2.929688-10.929688c-3.824219-2.207031-8.71875-.894531-10.925781 2.929688-2.210938 3.824219-.90625 8.71875 2.925781 10.929688zm0 0"/><path d="m88.863281 222.929688c3.824219-2.210938 5.136719-7.105469 2.929688-10.929688s-7.105469-5.136719-10.929688-2.929688c-3.824219 2.210938-5.136719 7.105469-2.925781 10.929688 2.207031 3.824219 7.09375 5.136719 10.925781 2.929688zm0 0"/><path d="m176 264c0 4.417969-3.582031 8-8 8s-8-3.582031-8-8 3.582031-8 8-8 8 3.582031 8 8zm0 0"/><path d="m247.136719 222.929688c3.824219 2.207031 8.71875.894531 10.925781-2.929688 2.210938-3.824219.898438-8.71875-2.925781-10.929688-3.824219-2.207031-8.722657-.894531-10.929688 2.929688s-.894531 8.71875 2.929688 10.929688zm0 0"/><path d="m255.136719 126.929688c3.824219-2.210938 5.136719-7.105469 2.925781-10.929688-2.207031-3.824219-7.101562-5.136719-10.925781-2.929688-3.824219 2.210938-5.136719 7.105469-2.929688 10.929688s7.105469 5.136719 10.929688 2.929688zm0 0"/></svg>