<svg height="496pt" viewBox="0 0 496 496" width="496pt" xmlns="http://www.w3.org/2000/svg"><path d="m248 0c-136.753906 0-248 111.257812-248 248s111.246094 248 248 248 248-111.257812 248-248-111.246094-248-248-248zm0 480c-127.921875 0-232-104.070312-232-232s104.078125-232 232-232 232 104.070312 232 232-104.078125 232-232 232zm0 0"/><path d="m195.070312 312h105.859376l18.644531-80.304688c.273437-1.535156.425781-3.136718.425781-4.742187 0-14.863281-12.097656-26.953125-26.953125-26.953125h-90.09375c-14.855469 0-26.953125 12.089844-26.953125 26.953125 0 1.605469.152344 3.207031.503906 5.125zm7.882813-96h90.09375c6.042969 0 10.953125 4.910156 10.953125 10.953125 0 .640625-.054688 1.277344-.089844 1.511719l-15.6875 67.535156h-80.445312l-15.601563-67.152344c-.121093-.617187-.175781-1.253906-.175781-1.894531 0-6.042969 4.910156-10.953125 10.953125-10.953125zm0 0"/><path d="m400 224h-16c-8.824219 0-16 7.175781-16 16v16c0 8.824219 7.175781 16 16 16h16c8.824219 0 16-7.175781 16-16v-16c0-8.824219-7.175781-16-16-16zm-16 32v-16h16l.007812 16zm0 0"/><path d="m96 224h16v16h-16zm0 0"/><path d="m96 256h16v16h-16zm0 0"/><path d="m112 240h16v16h-16zm0 0"/><path d="m80 240h16v16h-16zm0 0"/><path d="m248 280c13.230469 0 24-10.769531 24-24s-10.769531-24-24-24-24 10.769531-24 24 10.769531 24 24 24zm0-32c4.414062 0 8 3.59375 8 8s-3.585938 8-8 8-8-3.59375-8-8 3.585938-8 8-8zm0 0"/><path d="m248 48c-50.335938 0-98.449219 18.792969-135.472656 52.902344l10.839844 11.769531c34.066406-31.382813 78.320312-48.671875 124.632812-48.671875 81.9375 0 151.511719 53.847656 175.257812 128h-82.851562c-10.75-14.527344-27.949219-24-47.367188-24h-90.085937c-19.417969 0-36.617187 9.472656-47.367187 24h-82.707032c8.074219-25.257812 21.441406-48.710938 39.785156-68.625l-11.769531-10.839844c-34.101562 37.023438-52.894531 85.128906-52.894531 135.464844 0 110.28125 89.71875 200 200 200 50.335938 0 98.449219-18.792969 135.472656-52.902344l-10.839844-11.769531c-23.679687 21.816406-52.335937 36.632813-83.136718 43.75l3.398437-30.566406c5.847657-52.734375 50.28125-92.511719 103.34375-92.511719h26.882813c-8.074219 25.257812-21.441406 48.710938-39.785156 68.625l11.769531 10.839844c34.101562-37.023438 52.894531-85.128906 52.894531-135.464844 0-110.28125-89.71875-200-200-200zm-45.046875 136h90.09375c23.6875 0 42.953125 19.273438 42.953125 42.953125 0 2.839844-.28125 5.664063-.785156 8.183594l-17.253906 74.296875c-2.535157 10.925781-12.152344 18.566406-23.386719 18.566406h-93.148438c-11.226562 0-20.839843-7.640625-23.386719-18.566406l-17.199218-74.066406c-.558594-2.742188-.839844-5.574219-.839844-8.414063 0-23.679687 19.265625-42.953125 42.953125-42.953125zm-55.769531 24c-2.03125 5.960938-3.183594 12.320312-3.183594 18.953125 0 3.894531.390625 7.789063 1.199219 11.808594l15.28125 65.789062c-17.871094-10.503906-38.625-16.550781-60.71875-16.550781h-31.328125c-2.875-12.886719-4.433594-26.265625-4.433594-40 0-13.59375 1.664062-26.96875 4.558594-40zm-74.441406 96h27.019531c53.0625 0 97.503906 39.777344 103.359375 92.511719l3.414062 30.710937c-63.296875-14.628906-114.175781-61.976562-133.792968-123.222656zm204.234374 90.753906-3.929687 35.351563c-8.261719 1.125-16.597656 1.894531-25.046875 1.894531-8.496094 0-16.839844-.625-25.03125-1.742188l-3.945312-35.503906c-2.070313-18.625-8.351563-35.824218-17.765626-50.769531.054688 0 .109376.015625.167969.015625h93.160157c.054687 0 .109374-.015625.167968-.015625-9.425781 14.9375-15.707031 32.136719-17.777344 50.769531zm119.261719-106.753906c-22.09375 0-42.847656 6.046875-60.726562 16.542969l15.335937-66.015625c.761719-3.785156 1.152344-7.679688 1.152344-11.574219 0-6.640625-1.152344-12.992187-3.183594-18.953125h78.75c2.875 12.886719 4.433594 26.265625 4.433594 40 0 13.59375-1.664062 26.96875-4.558594 40zm0 0"/></svg>